<?xml version="1.0" standalone="no"?>
<!DOCTYPE svg PUBLIC "-//W3C//DTD SVG 20010904//EN"
 "http://www.w3.org/TR/2001/REC-SVG-20010904/DTD/svg10.dtd">
<svg version="1.0" xmlns="http://www.w3.org/2000/svg"
 width="320.000000pt" height="320.000000pt" viewBox="0 0 320.000000 320.000000"
 preserveAspectRatio="xMidYMid meet">

<g transform="translate(0.000000,320.000000) scale(0.100000,-0.100000)"
fill="#000000" stroke="none">
<path d="M1285 2559 c-198 -39 -362 -137 -471 -283 -260 -345 -200 -828 135
-1096 128 -103 257 -149 431 -157 143 -6 234 11 345 66 142 71 187 129 137
174 -28 26 -51 21 -127 -29 -102 -66 -185 -89 -320 -89 -120 0 -177 12 -269
57 -334 162 -463 567 -290 909 26 53 59 96 113 149 127 126 263 182 441 182
58 0 121 -6 160 -17 150 -39 297 -150 387 -291 51 -81 52 -81 97 -15 l27 39
-20 39 c-76 147 -274 298 -456 348 -73 20 -252 28 -320 14z"/>
<path d="M2305 2550 c-58 -22 -125 -84 -152 -138 -19 -39 -31 -207 -16 -228
11 -15 266 -177 278 -177 6 0 38 12 73 28 79 35 153 113 172 179 19 68 8 165
-24 220 -69 117 -204 164 -331 116z m73 -120 c-18 -27 -37 -50 -43 -49 -5 0
-21 9 -34 20 -22 18 -23 22 -9 35 15 15 82 43 106 44 7 0 -2 -21 -20 -50z
m152 -18 c0 -2 -17 -27 -38 -57 l-38 -53 -27 16 c-15 9 -27 21 -27 27 0 6 16
34 35 63 l36 52 29 -22 c17 -12 30 -24 30 -26z m-249 -69 c34 -20 34 -26 11
-71 l-18 -33 -27 21 c-26 21 -34 51 -21 84 8 20 19 20 55 -1z m285 -57 c-7
-43 -8 -45 -32 -34 -29 14 -30 21 -3 65 28 45 44 30 35 -31z m-170 -20 c19
-14 19 -15 0 -50 -21 -39 -27 -42 -55 -24 -19 12 -19 12 0 50 22 42 27 44 55
24z m118 -78 c17 -14 17 -16 -13 -40 -19 -17 -38 -24 -51 -21 -31 8 -33 19 -8
57 23 35 29 36 72 4z"/>
<path d="M1350 2267 c-17 -9 -34 -36 -57 -92 -75 -186 -246 -615 -269 -673
l-24 -63 72 3 72 3 40 108 40 107 189 -2 189 -3 40 -107 40 -108 70 0 c67 0
69 1 62 23 -7 22 -244 621 -290 734 -21 50 -32 64 -56 72 -41 14 -87 14 -118
-2z m133 -307 l64 -165 -130 -3 c-71 -1 -132 0 -135 2 -2 3 16 56 41 118 73
180 90 219 93 216 1 -2 32 -77 67 -168z"/>
<path d="M2103 2068 c-15 -24 -67 -121 -116 -216 -78 -151 -90 -182 -94 -237
-9 -103 35 -178 158 -272 27 -21 67 -62 87 -92 35 -51 37 -57 37 -135 0 -63
-5 -91 -22 -126 -66 -133 -214 -208 -388 -197 -55 3 -136 21 -260 57 -162 48
-190 53 -280 53 -116 1 -195 -21 -294 -81 -100 -60 -161 -118 -161 -152 0 -29
30 -60 58 -60 8 0 40 23 71 52 31 28 90 68 131 87 73 35 79 36 190 36 109 0
124 -3 293 -53 161 -47 188 -52 276 -52 223 0 386 93 470 269 34 71 36 82 36
171 0 85 -3 101 -29 152 -16 31 -64 96 -107 143 -64 69 -79 91 -79 117 0 41
39 110 166 290 57 81 104 150 104 152 0 6 -204 136 -213 136 -4 0 -19 -19 -34
-42z"/>
</g>
</svg>
